<svg width="20" height="20" viewBox="0 0 317 332" fill="none" xmlns="http://www.w3.org/2000/svg">
<path d="M30.6364 149H303.364C306.98 149 310.449 150.791 313.006 153.979C315.563 157.167 317 161.491 317 166C317 170.509 315.563 174.833 313.006 178.021C310.449 181.209 306.98 183 303.364 183H30.6364C27.0198 183 23.5513 181.209 20.994 178.021C18.4367 174.833 17 170.509 17 166C17 161.491 18.4367 157.167 20.994 153.979C23.5513 150.791 27.0198 149 30.6364 149Z" fill="#164863"/>
<path d="M40.1788 166L178.123 303.63C181.246 306.746 183 310.974 183 315.381C183 319.789 181.246 324.016 178.123 327.132C175 330.249 170.764 332 166.347 332C161.931 332 157.695 330.249 154.572 327.132L4.8862 177.751C3.33734 176.21 2.1085 174.378 1.27004 172.361C0.431589 170.345 0 168.183 0 166C0 163.817 0.431589 161.655 1.27004 159.639C2.1085 157.622 3.33734 155.79 4.8862 154.249L154.572 4.86755C157.695 1.75091 161.931 0 166.347 0C170.764 0 175 1.75091 178.123 4.86755C181.246 7.98419 183 12.2113 183 16.6189C183 21.0265 181.246 25.2535 178.123 28.3702L40.1788 166Z" fill="#164863"/>
</svg>
