<svg width="28" height="28" viewBox="0 0 38 38" fill="none" xmlns="http://www.w3.org/2000/svg">
<path d="M26.0854 8.56267L29.4374 11.9146M28.2404 5.60975L19.1726 14.6775C18.7041 15.1454 18.3845 15.7415 18.2543 16.3907L17.4167 20.5833L21.6094 19.7442C22.2585 19.6143 22.8539 19.2961 23.3225 18.8274L32.3903 9.75967C32.6628 9.48718 32.8789 9.16369 33.0264 8.80767C33.1738 8.45165 33.2497 8.07006 33.2497 7.68471C33.2497 7.29935 33.1738 6.91777 33.0264 6.56175C32.8789 6.20573 32.6628 5.88224 32.3903 5.60975C32.1178 5.33726 31.7943 5.12111 31.4383 4.97365C31.0823 4.82618 30.7007 4.75027 30.3153 4.75027C29.93 4.75027 29.5484 4.82618 29.1924 4.97365C28.8363 5.12111 28.5128 5.33726 28.2404 5.60975Z" stroke="#164863" stroke-width="2.5" stroke-linecap="round" stroke-linejoin="round"/>
<path d="M30.0833 23.75V28.5C30.0833 29.3398 29.7497 30.1453 29.1558 30.7392C28.562 31.333 27.7565 31.6667 26.9167 31.6667H9.50001C8.66016 31.6667 7.8547 31.333 7.26084 30.7392C6.66697 30.1453 6.33334 29.3398 6.33334 28.5V11.0833C6.33334 10.2435 6.66697 9.43802 7.26084 8.84415C7.8547 8.25029 8.66016 7.91666 9.50001 7.91666H14.25" stroke="#164863" stroke-width="3" stroke-linecap="round" stroke-linejoin="round"/>
</svg>
